<svg id="Layer_1" data-name="Layer 1" xmlns="http://www.w3.org/2000/svg" viewBox="0 0 40 40"><defs><style>.cls-1{fill:#eee;}.cls-2{fill:#121212;}</style></defs><title>header-basket</title><circle id="Ellipse_7" data-name="Ellipse 7" class="cls-1" cx="20" cy="20" r="20"/><path id="shopping-cart" class="cls-2" d="M277.44,436.38a2.25,2.25,0,0,0-1.72-.76H259.28l-.17-1.24A2.5,2.5,0,0,0,257,432h-1.21a.68.68,0,1,0,0,1.35H257c.21,0,.67.46.77,1.21l1.94,14.53a2.81,2.81,0,0,0,2.23,2.33,2.49,2.49,0,1,0,4.37,2.38,2.52,2.52,0,0,0,0-2.33h3.54a2.49,2.49,0,1,0,4.43,0h1.77a.68.68,0,1,0,0-1.35H262.43a1.46,1.46,0,0,1-1.38-1.21l-.14-1.06h13.36a2.81,2.81,0,0,0,2.72-2.39l1-7.28a2.28,2.28,0,0,0-.53-1.8Zm-12.18,16.23a1.14,1.14,0,1,1-1.14-1.14h0A1.14,1.14,0,0,1,265.26,452.61Zm8,0a1.14,1.14,0,1,1-1.13-1.14h0a1.14,1.14,0,0,1,1.13,1.14Zm3.19-15.34a.88.88,0,0,1,.2.73l-.4,3.06h-4.61l.27-4.09h3.84a1,1,0,0,1,.7.3Zm-9.61,9.23-.27-4.09h3.62l-.27,4.09Zm-.36-5.44-.27-4.08h4.35l-.28,4.08ZM264.82,437l.27,4.09H260l-.54-4.09Zm-4.64,5.44h5l.28,4.08h-4.73Zm14.09,4.09h-3l.27-4.09H276l-.39,2.88A1.45,1.45,0,0,1,274.27,446.5Z" transform="translate(-248.11 -423)"/></svg>