<svg id="Layer_1" data-name="Layer 1" xmlns="http://www.w3.org/2000/svg" viewBox="0 0 40 40"><defs><style>.cls-1{fill:#eee;}.cls-2{fill:#121212;}</style></defs><title>instagram</title><circle id="Ellipse_2" data-name="Ellipse 2" class="cls-1" cx="20" cy="20" r="20"/><path id="Path_2" data-name="Path 2" class="cls-2" d="M336.41,439.66H317.66a3.12,3.12,0,0,1-3.13-3.12h0V417.79a3.13,3.13,0,0,1,3.12-3.13h18.76a3.12,3.12,0,0,1,3.12,3.12h0v18.75a3.12,3.12,0,0,1-3.12,3.12ZM327,424a3.18,3.18,0,1,0,3.17,3.17h0A3.17,3.17,0,0,0,327,424Zm9.38-6.2h-3.13v3.12h3.13Zm0,9.37h-2.74a6.64,6.64,0,1,1-13.28,0h-2.73v9.38h18.75Z" transform="translate(-306.53 -406.66)"/></svg>