<?xml version="1.0" encoding="utf-8"?>
<!-- Generator: Adobe Illustrator 24.0.1, SVG Export Plug-In . SVG Version: 6.00 Build 0)  -->
<svg version="1.1" id="Layer_1" xmlns="http://www.w3.org/2000/svg" xmlns:xlink="http://www.w3.org/1999/xlink" x="0px" y="0px"
	 viewBox="0 0 145 20" style="enable-background:new 0 0 145 20;" xml:space="preserve">
<g>
	<path d="M3.2,13.3c0.1,0,0.2,0.1,0.4,0.4c0.1,0.2,0.3,0.3,0.5,0.5c0.3,0.2,0.4,0.3,0.4,0.4c0,0.1-0.1,0.2-0.4,0.4
		c-0.2,0.1-0.4,0.3-0.5,0.5l-0.1,0.2c-0.1,0.1-0.2,0.2-0.3,0.2S3,15.8,2.8,15.5c-0.1-0.2-0.3-0.4-0.5-0.5S2,14.7,2,14.6
		c0-0.1,0.1-0.2,0.3-0.4c0.2-0.1,0.4-0.3,0.6-0.6C2.9,13.4,3.1,13.3,3.2,13.3z"/>
	<path d="M8,5.1c0-1.3-0.5-2-1.6-2.2l-0.5,0c-0.1,0-0.2-0.1-0.2-0.3S5.8,2.3,6,2.3h0.2h0.7c0.6,0,1,0,1.2,0c0.5,0,1.3-0.1,2.6-0.2
		C11.5,2,12.1,2,12.6,2C14,2.1,15.1,2.4,16,3s1.3,1.4,1.3,2.4c0,1.1-0.5,1.9-1.6,2.4C15.4,7.9,15.3,8,15.3,8c0,0.1,0.1,0.2,0.4,0.2
		c0.8,0.1,1.5,0.5,1.9,1.1c0.5,0.6,0.7,1.3,0.7,2.1c0,1.3-0.4,2.3-1.3,3.1s-2,1.1-3.5,1.1l-2-0.1H10c-1,0-1.8,0-2.5,0.1
		c-0.2,0-0.4,0-0.6,0s-0.3-0.1-0.3-0.3c0-0.1,0.1-0.2,0.3-0.3c0.8-0.1,1.2-0.8,1.2-2V5.1H8z M10.2,4.2V7c0,0.4,0.1,0.7,0.3,0.8
		C10.7,8,11,8,11.5,8h1.3h0.6c1.1-0.1,1.7-0.8,1.7-2c0-1-0.3-1.8-0.9-2.3s-1.4-0.9-2.4-0.9c-0.6,0-1,0.1-1.2,0.3
		C10.3,3.3,10.2,3.7,10.2,4.2z M10.2,10.7v1.6v0.4l0.1,0.8c0.1,0.9,0.8,1.4,2.2,1.4s2.3-0.3,2.8-1c0.4-0.6,0.6-1.2,0.6-2
		c0-1.5-0.7-2.5-2-2.8c-0.8-0.2-1.7-0.3-2.7-0.3c-0.5,0-0.8,0.1-0.9,0.3C10.3,9.4,10.2,9.9,10.2,10.7z"/>
	<path d="M26.9,2c2,0,3.7,0.6,4.9,1.8C33,5,33.7,6.5,33.7,8.5c0,2.1-0.6,3.9-1.9,5.3c-1.3,1.4-3,2.1-5.2,2.1c-2.1,0-3.8-0.6-5.1-1.9
		c-1.3-1.2-1.9-2.9-1.9-5c0-0.9,0.2-1.8,0.5-2.6s0.8-1.6,1.3-2.2C22,3.5,22.8,3,23.8,2.6S25.8,2,26.9,2z M26.2,2.7
		c-1.3,0-2.3,0.5-3.1,1.5c-0.7,1-1.1,2.3-1.1,4.1c0,2,0.5,3.7,1.4,5s2.1,1.9,3.6,1.9c1.3,0,2.4-0.5,3.2-1.6c0.8-1.1,1.2-2.5,1.2-4.2
		c0-1-0.2-2-0.6-3s-0.9-1.7-1.5-2.3C28.5,3.2,27.4,2.7,26.2,2.7z"/>
	<path d="M40.2,4.5l5.2,5.8l0.3,0.4c0.4,0.5,0.7,0.7,0.9,0.7c0.1,0,0.2-0.2,0.2-0.6c0.1-1.4,0.1-2.8,0.1-4.1c0-1.5-0.2-2.6-0.5-3.1
		s-0.9-0.8-1.8-0.9c-0.2,0-0.3-0.1-0.3-0.2c0-0.2,0.1-0.3,0.3-0.3s0.6,0,1.1,0.1c0.3,0,0.6,0.1,0.8,0.1c0.5,0,1.2-0.1,2.1-0.2
		c0.1,0,0.2,0,0.3,0c0.2,0,0.3,0.1,0.3,0.3s-0.1,0.3-0.3,0.3C48.1,3,47.6,3.7,47.6,5v0.5l-0.1,6.1v0.8v1.1v0.7v1.2
		c0,0.2-0.1,0.3-0.2,0.3c-0.1,0-0.2-0.1-0.4-0.2L38,5.6c-0.2-0.2-0.3-0.3-0.3-0.3c-0.2,0-0.2,0.1-0.2,0.4V6v3.8c0,2,0.1,3.4,0.3,4.1
		c0.2,0.7,0.8,1.1,1.9,1.2c0.2,0,0.3,0.1,0.3,0.2c0,0.2-0.1,0.3-0.3,0.3c-0.1,0-0.2,0-0.4,0c-0.5-0.1-1.2-0.1-1.8-0.1
		c-0.7,0-1.2,0-1.8,0.1c-0.2,0-0.4,0.1-0.5,0.1c-0.2,0-0.3-0.1-0.3-0.2c0-0.1,0.1-0.2,0.3-0.3c0.5-0.1,0.8-0.4,1-0.8
		c0.2-0.4,0.3-1,0.3-1.8l0.1-2.3V6c0-2-0.7-3.1-2.2-3.2c-0.2,0-0.3-0.1-0.3-0.2c0-0.2,0.1-0.3,0.3-0.3h0.7h0.4c0.5,0,1.1,0,1.6-0.1
		c0.2,0,0.4,0,0.5,0c0.2,0,0.4,0,0.5,0.1s0.4,0.4,0.7,0.8l0.7,0.8C40,4.2,40.1,4.4,40.2,4.5z"/>
	<path d="M52.1,13.3c0.1,0,0.2,0.1,0.4,0.4c0.1,0.2,0.3,0.3,0.5,0.5c0.3,0.2,0.4,0.3,0.4,0.4c0,0.1-0.1,0.2-0.4,0.4
		c-0.2,0.1-0.4,0.3-0.5,0.5l-0.1,0.2c-0.1,0.1-0.2,0.2-0.3,0.2s-0.2-0.1-0.4-0.4c-0.1-0.2-0.3-0.4-0.5-0.5s-0.3-0.3-0.3-0.4
		c0-0.1,0.1-0.2,0.3-0.4c0.2-0.1,0.4-0.3,0.6-0.6C51.8,13.4,51.9,13.3,52.1,13.3z"/>
	<path d="M63.4,10.5h-3.5c-0.5,0-0.8,0-0.9,0.1s-0.3,0.3-0.5,0.8l-0.6,1.4c-0.3,0.7-0.4,1.1-0.4,1.5c0,0.3,0.1,0.5,0.2,0.7
		s0.5,0.3,0.9,0.4c0.2,0,0.3,0.1,0.3,0.2c0,0.1-0.1,0.2-0.3,0.2c-0.1,0-0.2,0-0.3,0l-0.9-0.1c-0.3,0-0.7,0-1.1,0c-0.2,0-0.3,0-0.4,0
		c-0.3,0-0.5,0.1-0.5,0.1c-0.2,0-0.3-0.1-0.3-0.2c0-0.1,0.1-0.2,0.2-0.2l0.4-0.1c0.1,0,0.3-0.2,0.5-0.5s0.4-0.6,0.5-0.9l0.3-0.6
		l5-11.2c0.1-0.2,0.2-0.3,0.3-0.3s0.2,0.1,0.3,0.3l4.2,10.8l0.2,0.5c0.3,0.8,0.6,1.3,0.8,1.5s0.6,0.3,1.2,0.5c0.2,0,0.3,0.1,0.3,0.2
		c0,0.1-0.1,0.2-0.3,0.2c-0.1,0-0.2,0-0.4,0c-0.3,0-0.9,0-1.8,0s-1.5,0-1.7,0.1c-0.1,0-0.2,0-0.3,0c-0.2,0-0.3-0.1-0.3-0.2
		c0-0.1,0.1-0.2,0.2-0.2l0.3-0.1c0.3-0.1,0.5-0.3,0.5-0.7c0-0.3-0.2-1-0.6-2.1l-0.5-1.3c-0.1-0.4-0.2-0.6-0.3-0.6
		S63.8,10.5,63.4,10.5z M63.6,8.9L62,5.1l-0.1-0.2c-0.1-0.2-0.2-0.3-0.3-0.3c0,0-0.1,0.1-0.2,0.2L59.6,9c-0.1,0.2-0.1,0.3-0.1,0.4
		c0,0.2,0.1,0.3,0.4,0.3h0.3h2.9c0.3,0,0.5-0.1,0.5-0.2c0,0,0-0.1,0-0.2L63.6,8.9z"/>
	<path d="M81.4,6v8.2c0,0.7,0,1.2,0,1.3c0,0.2-0.1,0.2-0.3,0.2c-0.1,0-0.2,0-0.2-0.1l-0.2-0.3L72.4,6l-0.1-0.1l-0.1-0.1
		C72.1,5.9,72,6,72,6.3v6.6v0.4V14c0,0.4,0.2,0.7,0.3,0.9c0.2,0.2,0.5,0.3,1,0.4c0.2,0,0.3,0.1,0.3,0.2c0,0.1-0.1,0.2-0.2,0.2
		s-0.2,0-0.3,0c-0.1,0-0.4,0-0.8-0.1h-1h-0.5c-0.3,0-0.5,0-0.7,0s-0.3,0-0.4,0c-0.2,0-0.3-0.1-0.3-0.2c0-0.1,0.1-0.2,0.3-0.2
		c0.5-0.2,0.9-0.4,1.1-0.8c0.2-0.3,0.3-0.8,0.3-1.5V6.3c0-1.1-0.2-2-0.5-2.7c-0.4-0.6-0.9-1-1.6-1.1c-0.2,0-0.3-0.1-0.3-0.2
		c0-0.1,0.1-0.2,0.2-0.2c0,0,0.1,0,0.2,0h0.4h0.7h0.2c0.2,0,0.3,0,0.4,0c0.2,0,0.3,0.1,0.5,0.3l9,10.2c0.1,0.2,0.2,0.2,0.3,0.2
		c0.1,0,0.1-0.1,0.1-0.2V7.9V6.6l-0.1-2.2c-0.1-0.6-0.2-0.9-0.5-1.2c-0.3-0.2-0.7-0.4-1.4-0.5c-0.2,0-0.3-0.1-0.3-0.2
		c0-0.1,0.1-0.2,0.3-0.2c0.1,0,0.2,0,0.4,0c0.4,0,1.1,0.1,1.8,0.1c0.4,0,0.7,0,1-0.1c0.2,0,0.4-0.1,0.5-0.1c0.2,0,0.3,0.1,0.3,0.2
		c0,0.1-0.1,0.1-0.2,0.2C82,2.7,81.8,2.8,81.6,3c-0.1,0.2-0.2,0.7-0.2,1.3v1.1V6z"/>
	<path d="M93.8,3.3h-2.7c-0.3,0-0.5,0-0.5,0.1S90.4,3.7,90.4,4v9.6V14c0,0.8,0.5,1.2,1.3,1.4c0.2,0,0.3,0.1,0.3,0.2
		c0,0.1-0.1,0.2-0.3,0.2c-0.1,0-0.2,0-0.5-0.1c-0.1,0-0.4,0-0.9,0h-0.7h-0.8c-0.3,0-0.5,0-0.7,0c-0.4,0-0.6,0.1-0.7,0.1
		c-0.2,0-0.3-0.1-0.3-0.2c0-0.1,0.1-0.2,0.3-0.2c0.5-0.1,0.8-0.2,1-0.4s0.3-0.6,0.3-1.1V4.1V3.8c0-0.2,0-0.4-0.1-0.5
		s-0.2-0.1-0.5-0.1h-2.6c-0.5,0-0.9,0.1-1.1,0.3S84,4.1,83.8,4.7c-0.1,0.3-0.1,0.4-0.3,0.4c-0.1,0-0.2-0.1-0.2-0.3
		c0-0.1,0-0.4,0.1-0.8c0.1-0.5,0.1-0.9,0.1-1.2s0-0.5,0.1-0.6s0.2-0.1,0.4-0.1h10.5c0.4,0,0.6,0,0.7,0.1s0.1,0.3,0.1,0.7
		s0,0.7,0,0.8c0,0.2,0.1,0.4,0.1,0.5c0,0.2-0.1,0.3-0.2,0.3S95,4.4,95,4.2c-0.1-0.5-0.2-0.8-0.4-0.9C94.7,3.4,94.4,3.3,93.8,3.3z"/>
	<path d="M99.8,5.1v7.3c0,0.9,0.1,1.5,0.2,1.8s0.3,0.6,0.5,0.7c0.2,0.1,0.5,0.2,0.9,0.3c0.3,0,0.5,0.1,0.5,0.2
		c0,0.2-0.1,0.2-0.3,0.2c-0.1,0-0.2,0-0.4,0c-0.2,0-0.5,0-1,0h-1.4l-1.2,0.1c-0.2,0-0.3,0-0.5,0s-0.3-0.1-0.3-0.2
		c0-0.1,0.1-0.2,0.3-0.2c0.5-0.1,0.8-0.3,1-0.5c0.1-0.3,0.2-0.8,0.2-1.6V4.8c0-0.8-0.1-1.4-0.3-1.6s-0.6-0.5-1.2-0.6
		c-0.2,0-0.3-0.1-0.3-0.2c0-0.1,0.1-0.2,0.3-0.2c0.1,0,0.1,0,0.2,0c0.5,0.1,1.1,0.1,1.9,0.1c0.5,0,0.9,0,1.2,0l0.7-0.1
		c0.1,0,0.2,0,0.2,0c0.2,0,0.3,0.1,0.3,0.2c0,0.1-0.1,0.2-0.3,0.3l-0.5,0.2C100,3,99.8,3.8,99.8,5.1z"/>
	<path d="M106,14.8c-1.9-1.5-2.9-3.4-2.9-5.7c0-1.8,0.5-3.4,1.6-4.7c1.3-1.5,3-2.3,5.3-2.3c2,0,3.7,0.6,5,1.9s1.9,2.9,1.9,5
		c0,1.3-0.3,2.5-0.9,3.6s-1.4,1.9-2.4,2.5c-0.7,0.4-1.4,0.6-2.3,0.8c0.7,0.3,1.1,0.6,1.4,0.7l0.9,0.6l0.7,0.5c0.6,0.4,1,0.5,1.4,0.5
		c0.5,0,1-0.1,1.4-0.3c0.1-0.1,0.2-0.1,0.3-0.1c0.1,0,0.2,0,0.2,0.1c0,0.2-0.3,0.5-0.9,0.8s-1.2,0.4-1.8,0.4c-0.8,0-1.7-0.3-2.8-0.9
		c-0.9-0.6-1.5-0.9-1.7-1l-1.6-0.9c-1-0.5-1.7-0.8-2.1-0.8s-0.8,0.2-1.1,0.5c-0.3,0.3-0.5,0.7-0.6,1.2c0,0.2-0.1,0.4-0.2,0.4
		c-0.2,0-0.3-0.1-0.2-0.3c0-0.5,0.2-1,0.5-1.5C105.3,15.2,105.6,14.9,106,14.8z M109.5,2.6c-1.4,0-2.6,0.5-3.5,1.5s-1.3,2.4-1.3,4
		c0,2.4,0.8,4.3,2.3,5.7c1.1,1,2.4,1.5,3.8,1.5s2.6-0.5,3.5-1.5s1.3-2.3,1.3-4c0-2-0.6-3.7-1.8-5.2C112.6,3.3,111.1,2.6,109.5,2.6z"
		/>
	<path d="M130.5,10V4.9c0-0.8-0.1-1.4-0.4-1.8c-0.2-0.4-0.6-0.6-1.2-0.6c-0.2,0-0.3-0.1-0.3-0.2c0-0.1,0.1-0.2,0.2-0.2
		c0.1,0,0.3,0,0.6,0.1c0.2,0,0.5,0.1,0.9,0.1c0.7,0,1.2,0,1.3,0c0.2,0,0.4,0,0.4,0c0.1,0,0.2,0.1,0.2,0.2c0,0.1-0.1,0.2-0.2,0.2
		c-0.4,0.2-0.7,0.4-0.8,0.7S131,4.2,131,5.1v4.8c0,1.8-0.4,3.1-1.1,4.1c-0.4,0.6-1.1,1.1-1.9,1.5c-0.8,0.4-1.7,0.5-2.7,0.5
		c-1.1,0-2.1-0.2-3-0.6c-0.9-0.4-1.5-1-1.9-1.7c-0.5-0.8-0.7-2-0.7-3.3v-5V4.8c0-0.7-0.1-1.2-0.3-1.4c-0.2-0.3-0.6-0.4-1.2-0.5
		c-0.2,0-0.3-0.1-0.3-0.2c0-0.2,0.1-0.2,0.4-0.2c0.2,0,0.4,0,0.7,0c0.3,0,0.5,0,0.7,0h0.8h0.7c0.1,0,0.3,0,0.5,0s0.4,0,0.5,0
		c0.2,0,0.2,0.1,0.2,0.2c0,0.1-0.1,0.2-0.3,0.2c-0.4,0.1-0.6,0.2-0.8,0.5c-0.1,0.2-0.2,0.7-0.2,1.3v0.6V10c0,1.7,0.3,2.9,0.8,3.6
		c0.7,1,2,1.5,3.7,1.5c1.6,0,2.7-0.4,3.5-1.3C130.1,13,130.5,11.7,130.5,10z"/>
	<path d="M137.2,3.8v3.9c0,0.3,0,0.5,0.1,0.5c0.1,0.1,0.2,0.1,0.5,0.1h1.5c0.7,0,1.2,0,1.6-0.1c0.4-0.1,0.6-0.2,0.7-0.3
		c0.1-0.1,0.2-0.4,0.3-0.8c0-0.2,0.1-0.2,0.3-0.2c0.1,0,0.2,0.1,0.2,0.3c0,0,0,0.1,0,0.2c-0.1,0.6-0.1,1.2-0.1,1.7
		c0,0.4,0,0.8,0.1,1.2c0,0.1,0,0.2,0,0.3c0,0.2-0.1,0.2-0.2,0.2c-0.1,0-0.2-0.1-0.3-0.2l-0.1-0.3c-0.1-0.4-0.2-0.7-0.5-0.9
		c-0.2-0.2-0.6-0.2-1.2-0.2H138c-0.3,0-0.5,0-0.6,0.1s-0.2,0.2-0.2,0.4V10v3.6c0,0.6,0.1,0.9,0.3,1s0.7,0.2,1.5,0.2
		c2.6,0,4.2-0.6,4.9-1.7c0.1-0.1,0.1-0.2,0.2-0.2c0.1,0,0.2,0.1,0.2,0.3c0,0.4-0.2,0.9-0.7,1.5c-0.6,0.7-1.3,1.1-2.2,1.1
		c-0.2,0-0.4,0-0.8,0c-1.2-0.1-2.3-0.2-3.1-0.2c-1.1,0-1.9,0-2.4,0.1c-0.2,0-0.4,0.1-0.5,0.1c-0.2,0-0.3-0.1-0.3-0.2
		c0-0.1,0.1-0.2,0.3-0.2l0.4-0.1c0.5-0.1,0.7-0.6,0.7-1.4v-0.6V4.9c0-0.9-0.1-1.6-0.3-1.9s-0.6-0.5-1.2-0.5c-0.2,0-0.3-0.1-0.3-0.2
		c0-0.2,0.1-0.3,0.4-0.3c0.2,0,0.4,0,0.7,0c0.9,0.1,2.1,0.2,3.4,0.2c0.8,0,1.5,0,2.1,0l1.4-0.1c0.4,0,0.6,0,0.7,0c0.2,0,0.3,0,0.4,0
		c0.2,0,0.3,0.1,0.3,0.3c0,0.1,0,0.1,0,0.2s0,0.4-0.1,0.8V4c0,0.4-0.1,0.6-0.1,0.7s-0.1,0.1-0.2,0.2c-0.1,0-0.2-0.1-0.2-0.3V4.3
		c0-0.2,0-0.4-0.1-0.6c-0.1-0.3-0.4-0.5-0.8-0.6S140.7,3,139.7,3h-1.5c-0.4,0-0.7,0.1-0.8,0.2C137.3,3.2,137.2,3.5,137.2,3.8z"/>
</g>
</svg>
