<svg id="Layer_1" data-name="Layer 1" xmlns="http://www.w3.org/2000/svg" viewBox="0 0 40 40"><defs><style>.cls-1{fill:#eee;}.cls-2{fill:#121212;fill-rule:evenodd;}</style></defs><title>vk</title><circle id="Ellipse_3" data-name="Ellipse 3" class="cls-1" cx="20" cy="20" r="20"/><path id="VK" class="cls-2" d="M298,429.49c1,0,1-1.44,1-2a2.15,2.15,0,0,1,2-2c1,0,2.71,1.71,4,3,1,1,1,1,2,1h3a2,2,0,0,0,2-2c0-.62-.68-1.68-3-4-2-2-3-1,0-5,1.84-2.45,3.18-4.68,2.95-5.32s-5.34-1.59-5.94-.68a37.82,37.82,0,0,0-3,5c-1,2-1.1,3-2,3s-1-1.94-1-3c0-3.3.48-5.64-1-6h-3a5.84,5.84,0,0,0-3,1s-1.24,1-1,1,2-.41,2,1v2s0,4-1,4-3-4-5-7c-.79-1.17-1-1-2-1s-2,.05-3,.05-1.12.64-1,1c2,5,3.43,8.14,7.23,12.09,3.48,3.63,5.8,3.82,7.75,3.9C297.52,429.51,297,429.49,298,429.49Z" transform="translate(-278 -400.5)"/></svg>